<?xml version="1.0" standalone="no"?>
<!DOCTYPE svg PUBLIC "-//W3C//DTD SVG 1.1//EN" "http://www.w3.org/Graphics/SVG/1.1/DTD/svg11.dtd" >
<svg xmlns="http://www.w3.org/2000/svg">
<metadata>
This is a custom SVG webfont generated by Font Squirrel.
Copyright   : Copyright c 1993 Ares Software Corp All rights reserved
</metadata>
<defs>
<font id="webfontZqOoY0aB" horiz-adv-x="1193" >
<font-face units-per-em="2048" ascent="1638" descent="-410" />
<missing-glyph horiz-adv-x="595" />
<glyph unicode=" "  horiz-adv-x="595" />
<glyph unicode="&#x09;" horiz-adv-x="595" />
<glyph unicode="&#xa0;" horiz-adv-x="595" />
<glyph unicode="!" horiz-adv-x="839" d="M248 1425h344l-12 -299l-37 -673h-248l-37 665zM258 154q0 154 2 155.5t158 1.5q158 0 160 -2t2 -153q0 -154 -2.5 -156t-157.5 -2q-158 0 -160 2t-2 154z" />
<glyph unicode="&#x22;" horiz-adv-x="1114" d="M620 1200v232h262v-234l-2 -301h-258zM229 1200v232h262v-234l-2 -301h-258z" />
<glyph unicode="#" horiz-adv-x="1198" d="M88 397v195h205l35 244h-183v194h209l58 397h200l-57 -397h199l57 397h201l-58 -397h152v-194h-178l-35 -244h156v-195h-185l-57 -399h-201l58 399h-199l-57 -399h-201l57 399h-176zM494 592h198l35 244h-199z" />
<glyph unicode="$" d="M98 1022q0 207 142 317q111 88 305 109v158h110v-154q100 -2 187 -16q98 -16 174 -47l-27 -252q-80 39 -176 55q-80 16 -158 18v-348l56 -18q219 -72 308 -168t89 -268q0 -207 -150 -322q-111 -84 -303 -106v-175h-110v168q-102 0 -215 17q-119 18 -195 43l10 2h-10 l25 274q41 -23 142 -55.5t230 -32.5h13v367l-25 8q-213 66 -317.5 158t-104.5 268zM412 1044q0 -59 51 -100q18 -12 82 -41v299q-49 -14 -78 -35q-55 -41 -55 -123zM655 236q41 12 68 28q74 45 74 121q0 61 -58 111q-23 18 -84 49v-309z" />
<glyph unicode="%" horiz-adv-x="2019" d="M154 1055q0 188 90 292.5t258 104.5q170 0 260 -101.5t90 -289.5q0 -195 -88 -298.5t-262 -103.5q-172 0 -260 103t-88 293zM385 1055q0 -109 24.5 -164t92.5 -55q66 0 91 57t25 166t-26.5 163t-93.5 54q-61 0 -87 -57.5t-26 -163.5zM496 -43l839 1513h178l-841 -1513 h-176zM1174 373q0 186 91 290.5t259 104.5q170 0 260 -101.5t90 -287.5q0 -197 -89 -300.5t-261 -103.5t-261 102.5t-89 295.5zM1405 373q0 -111 25.5 -166t93.5 -55q66 0 91 57t25 168q0 106 -26.5 160.5t-93.5 54.5q-61 0 -88 -57.5t-27 -161.5z" />
<glyph unicode="&#x26;" horiz-adv-x="1538" d="M104 393q0 158 89 256q72 80 202 135q-66 59 -114 121q-66 86 -66 209q0 154 129 246t318 92q195 0 327.5 -82t134.5 -250q0 -162 -143 -276q-70 -55 -156 -96l252 -269q53 80 74 139q27 72 31 154h288q-12 -147 -65 -263t-133 -212q-6 -8 -12 -14l264 -283h-379l-92 96 q-49 -33 -97 -53q-154 -68 -331 -68q-250 0 -385.5 128t-135.5 290zM418 406q0 -86 70.5 -143.5t164.5 -57.5q109 0 211 65l15 11l-314 333q-74 -39 -106 -82q-41 -54 -41 -126zM516 1098q0 -70 86 -154l49 -47q39 20 90 57q92 70 93 146q0 61 -46.5 97t-113.5 36 q-61 0 -109.5 -36t-48.5 -99z" />
<glyph unicode="'" horiz-adv-x="620" d="M178 1200v232h262v-234l-2 -301h-258z" />
<glyph unicode="(" horiz-adv-x="743" d="M109 623q0 274 108.5 527t224.5 390h275q-111 -152 -202 -400.5t-91 -516.5t91 -517t202 -401h-275q-117 137 -225 390.5t-108 527.5z" />
<glyph unicode=")" horiz-adv-x="743" d="M27 -295q109 152 200.5 400.5t91.5 517.5q0 268 -92 517t-200 400h274q115 -137 224.5 -390t109.5 -527t-109.5 -527.5t-224.5 -390.5h-274z" />
<glyph unicode="*" horiz-adv-x="1183" d="M162 1026l76 229l276 -135l-43 305h242l-43 -305l276 135l76 -229l-305 -53l215 -219l-195 -144l-145 273l-146 -273l-194 144l215 219z" />
<glyph unicode="+" horiz-adv-x="1226" d="M96 416v237h402v396h237v-396h400v-237h-400v-402h-237v402h-402z" />
<glyph unicode="," horiz-adv-x="595" d="M29 -225l6 10l125 508l-4 8l8 8q297 0 306 -3t9 -9q-6 -29 -99 -275.5t-101 -250.5z" />
<glyph unicode="-" horiz-adv-x="681" d="M68 420v248h544v-248h-544z" />
<glyph unicode="." horiz-adv-x="595" d="M137 156q0 154 2 155.5t158 1.5t158 -2t2 -155q0 -154 -2 -156t-158 -2t-158 2t-2 156z" />
<glyph unicode="/" horiz-adv-x="673" d="M0 -25l442 1477h236l-442 -1477h-236z" />
<glyph unicode="0" d="M72 713q0 358 127 548.5t397 190.5q268 0 395 -190.5t127 -548.5q0 -356 -127 -547t-397 -191q-268 0 -395 191t-127 547zM399 713q0 -242 40 -371t157 -129q115 0 155 129t40 371q0 244 -40 372.5t-157 128.5q-115 0 -155 -128.5t-40 -372.5z" />
<glyph unicode="1" d="M160 1118l442 309h285l2 -1427h-336v1092l-244 -187z" />
<glyph unicode="2" d="M84 0v248l195 174q94 88 186 186q92 96 164.5 201.5t72.5 204.5q0 86 -58 135t-152 49q-117 0 -221.5 -43t-135.5 -68l-18 267q49 31 172 64.5t260 33.5q229 0 358 -109.5t129 -308.5q0 -152 -96 -302t-176 -230q-59 -68 -123 -129l-133 -123h567l-2 -250h-989z" />
<glyph unicode="3" d="M92 27l17 270q33 -20 126 -44t211 -24q127 0 210 53.5t83 139.5q0 102 -79.5 146t-215.5 44l-137 -2v242l105 -2q145 0 227 44t82 134q0 84 -64.5 127t-185.5 43q-109 0 -193.5 -23.5t-125.5 -44.5l-17 256q43 20 150.5 43t251.5 23q242 0 380 -97.5t138 -281.5 q0 -121 -72 -207t-197 -123q141 -25 213 -110.5t72 -218.5q0 -209 -157.5 -324t-424.5 -115q-139 0 -239.5 16t-157.5 36z" />
<glyph unicode="4" d="M27 287v266l563 874h379v-905h190v-235h-190v-287h-303v287h-639zM291 522h375v604z" />
<glyph unicode="5" d="M141 23l9 284q23 -18 111.5 -48t207.5 -30q135 0 216 62.5t81 173.5q0 113 -87 171t-243 58q-78 0 -149.5 -10t-122.5 -25l12 768h871v-237h-572l-4 -270l123 12q233 0 365.5 -122t132.5 -339q0 -233 -160 -364.5t-430 -131.5q-133 0 -235.5 21t-125.5 27z" />
<glyph unicode="6" d="M86 668q0 350 156.5 563t443.5 221q106 0 192.5 -18.5t135.5 -40.5l-33 -236h8q-55 25 -120.5 42.5t-133.5 17.5q-199 -23 -280 -166q-59 -106 -66 -283q43 66 109 100q84 47 180 47q201 0 313.5 -119.5t112.5 -330.5q0 -215 -139.5 -352.5t-358.5 -137.5 q-244 0 -382 164t-138 529zM406 440q16 -96 34 -135q47 -98 158 -98q82 0 133 66.5t51 168.5q0 106 -50 171t-136 65q-88 0 -141 -74q-35 -47 -49 -164z" />
<glyph unicode="7" d="M104 1178v249h977v-258l-514 -1169h-35l-286 6h-37l528 1172h-633z" />
<glyph unicode="8" d="M72 379q0 133 68.5 220t203.5 138q-135 59 -188.5 147.5t-53.5 174.5q0 188 131.5 290.5t360.5 102.5q225 0 357 -94t132 -266q0 -104 -67.5 -200.5t-173.5 -129.5q152 -59 217 -146.5t65 -230.5q0 -190 -143 -300t-383 -110q-242 0 -384 107t-142 297zM399 391 q0 -74 60.5 -127t144.5 -53q82 0 137.5 52t55.5 130q0 86 -54.5 142.5t-167.5 91.5q-92 -47 -134 -98.5t-42 -137.5zM412 1053q0 -66 50 -120t148 -83q51 18 107.5 73.5t56.5 133.5q0 76 -50 121t-132 45q-76 0 -128 -49t-52 -121z" />
<glyph unicode="9" d="M88 963q0 217 139.5 353t358.5 136q246 0 383 -164t137 -528q0 -350 -155.5 -563t-442.5 -222q-106 0 -190.5 18.5t-131.5 41.5l31 235h-18q55 -27 124.5 -43t135.5 -16q199 25 276 164q57 102 66 278q-41 -61 -105 -96q-84 -45 -180 -45q-199 0 -313.5 121t-114.5 330z M410 985q0 -106 51 -171.5t135 -65.5q90 0 141 73q35 49 47 168q-16 92 -32 129q-45 102 -158 103q-84 0 -134 -65t-50 -171z" />
<glyph unicode=":" horiz-adv-x="595" d="M137 899q0 154 2 155.5t158 1.5t158 -2t2 -155q0 -154 -2 -156t-158 -2t-158 2t-2 156zM137 156q0 154 2 155.5t158 1.5t158 -2t2 -155q0 -154 -2 -156t-158 -2t-158 2t-2 156z" />
<glyph unicode=";" horiz-adv-x="595" d="M137 899q0 154 2 155.5t158 1.5t158 -2t2 -155q0 -154 -2 -156t-158 -2t-158 2t-2 156zM29 -225l6 10l125 508l-4 8l8 8q297 0 306 -3t9 -9q-6 -29 -99 -275.5t-101 -250.5z" />
<glyph unicode="&#x3c;" horiz-adv-x="1226" d="M96 422v217l1039 436l-2 -229l-748 -316l748 -315l2 -229z" />
<glyph unicode="=" horiz-adv-x="1226" d="M94 643v237h1039v-237h-1039zM94 181v237h1039v-237h-1039z" />
<glyph unicode="&#x3e;" horiz-adv-x="1226" d="M96 -14l2 229l748 315l-748 316l-2 229l1039 -436v-217z" />
<glyph unicode="?" horiz-adv-x="1067" d="M119 1391q61 18 167.5 39.5t237.5 21.5q238 0 357.5 -101.5t119.5 -248.5q0 -106 -59 -196.5t-117 -141.5q-90 -96 -122.5 -160.5t-36.5 -122.5l-2 -28h-271l-2 43q4 80 43 161.5t115 169.5q43 39 82 101.5t39 128.5q0 70 -64.5 111.5t-173.5 41.5q-82 0 -168 -26.5 t-135 -48.5zM369 154q0 154 2 155.5t157 1.5q158 0 160 -2t2 -153q0 -154 -2 -156t-158 -2q-158 0 -159.5 2t-1.5 154z" />
<glyph unicode="@" horiz-adv-x="1656" d="M76 711q0 293 229.5 518t560.5 225q313 0 516 -184.5t203 -429.5q0 -231 -171 -402.5t-361 -171.5q-33 0 -65 21.5t-46 81.5q-29 -33 -87 -66t-130 -33q-111 0 -212 100.5t-101 266.5q0 176 111.5 322.5t307.5 146.5q63 0 135 -35t101 -106l20 100h185l-113 -543 q0 -29 18.5 -40t20.5 -11q68 0 141.5 112.5t73.5 266.5q0 164 -157.5 287t-391.5 123q-231 0 -398 -162t-167 -398q0 -240 172 -395t385 -155q150 0 270.5 36.5t169.5 81.5h195q-57 -106 -228 -209.5t-380 -103.5q-356 0 -581.5 226.5t-225.5 529.5zM631 647q0 -92 46 -135 t97 -43q102 0 168 70.5t66 177.5q0 88 -44 143t-124 55q-86 0 -147.5 -87t-61.5 -181z" />
<glyph unicode="A" horiz-adv-x="1542" d="M16 0l553 1427h396l563 -1427h-369l-115 313h-567l-117 -313h-344zM565 561h393l-192 580z" />
<glyph unicode="B" horiz-adv-x="1316" d="M145 0v1427h562q227 0 355 -91t128 -267q0 -129 -70.5 -215t-206.5 -115q168 -29 245 -120t77 -201q0 -205 -140.5 -311.5t-396.5 -106.5h-553zM481 246h129q139 0 214 45t75 143q0 100 -72.5 144.5t-212.5 44.5h-133v-377zM481 856h121q121 0 186.5 42t65.5 126 t-59.5 121t-176.5 37h-137v-326z" />
<glyph unicode="C" horiz-adv-x="1325" d="M90 705q0 344 215 545.5t578 201.5q127 0 229 -23.5t164 -46.5l-27 -278q-72 45 -162 68.5t-184 23.5q-209 0 -338 -135t-129 -350q0 -217 131 -348.5t351 -131.5q98 0 191 22.5t153 49.5l18 -270q-80 -23 -180.5 -40.5t-212.5 -17.5q-371 0 -584 194t-213 536z" />
<glyph unicode="D" horiz-adv-x="1544" d="M150 0v1427h487q410 0 609.5 -182t199.5 -532q0 -352 -209 -532.5t-614 -180.5h-473zM487 254h154q211 0 335 125t124 340q0 205 -125 330t-326 125h-162v-920z" />
<glyph unicode="E" horiz-adv-x="1202" d="M145 0v1427h934v-245h-598v-326h555v-246h-555v-362h611v-248h-947z" />
<glyph unicode="F" horiz-adv-x="1091" d="M145 0v1427h883v-245h-547v-336h520l3 -246h-523v-600h-336z" />
<glyph unicode="G" horiz-adv-x="1544" d="M88 713q0 352 224.5 545.5t619.5 193.5q141 0 250.5 -17.5t187.5 -48.5v-14l-22 -262q-80 43 -176.5 64.5t-196.5 21.5q-250 0 -395.5 -130t-145.5 -355q0 -217 133 -348.5t351 -131.5q59 0 99 8.5t68 18.5v315h-258v248h582v-770q-78 -25 -216 -50.5t-282 -25.5 q-387 0 -605 194t-218 544z" />
<glyph unicode="H" horiz-adv-x="1490" d="M150 0v1427h335v-563l519 2v561h335v-1427h-335v612h-519v-612h-335z" />
<glyph unicode="I" horiz-adv-x="630" d="M150 0v1427h335v-1427h-335z" />
<glyph unicode="J" horiz-adv-x="845" d="M33 -16v282q14 -6 54 -17t95 -11q92 0 141.5 64.5t49.5 223.5v901h336v-1011q0 -229 -117 -346t-340 -117q-74 0 -134 10.5t-85 20.5z" />
<glyph unicode="K" horiz-adv-x="1425" d="M150 0v1427h337v-602l471 602h406l-551 -669l594 -758h-432l-486 657h-2v-657h-337z" />
<glyph unicode="L" horiz-adv-x="1091" d="M150 0v1427h335v-1173h578v-252z" />
<glyph unicode="M" horiz-adv-x="1984" d="M145 0v1427h521l331 -995l340 995h506v-1427h-323l4 1133l-383 -1110h-299l-375 1112l4 -1135h-326z" />
<glyph unicode="N" horiz-adv-x="1548" d="M147 0v1427h418l522 -1017v1017h316v-1427h-408l-12 23l-520 987v-1010h-316z" />
<glyph unicode="O" horiz-adv-x="1603" d="M88 713q0 352 185.5 545.5t527.5 193.5q340 0 525 -193.5t185 -545.5q0 -344 -188 -541t-522 -197q-336 0 -524.5 197t-188.5 541zM434 713q0 -221 96.5 -351.5t270.5 -130.5q172 0 268 130.5t96 351.5q0 223 -96 353t-268 130q-174 0 -270.5 -130t-96.5 -353z" />
<glyph unicode="P" horiz-adv-x="1204" d="M129 0v1427h438q289 0 440.5 -109.5t151.5 -334.5q0 -221 -143.5 -341t-399.5 -120h-151v-522h-336zM465 772l115 -4q113 0 177 55.5t64 155.5q0 96 -65.5 149.5t-175.5 53.5h-115v-410z" />
<glyph unicode="Q" horiz-adv-x="1603" d="M88 713q0 352 185.5 545.5t527.5 193.5q340 0 525 -193.5t185 -545.5q0 -350 -186 -545q-59 -61 -168 -121l322 -307l-365 -2l-12 -10l-236 239l-22 8h-43q-342 0 -527.5 194t-185.5 544zM434 713q0 -221 96.5 -351.5t270.5 -130.5q172 0 268 130.5t96 351.5 q0 223 -96 353t-268 130q-174 0 -270.5 -130t-96.5 -353z" />
<glyph unicode="R" horiz-adv-x="1314" d="M131 0v1427h547q252 0 385 -93t133 -287q0 -117 -69.5 -213.5t-219.5 -126.5q90 -25 132 -115t73 -174l8 -19l154 -399h-361l-143 395q-27 80 -72 132.5t-129 52.5h-102v-580h-336zM467 825h141q115 0 180.5 44t65.5 135q0 94 -64.5 136t-191.5 42h-131v-357z" />
<glyph unicode="S" horiz-adv-x="1198" d="M102 1020q0 207 153 319.5t419 112.5q100 0 193.5 -16.5t156.5 -38.5l-25 -267q-72 33 -148.5 50.5t-166.5 17.5q-109 0 -172 -40t-63 -120q0 -55 48 -94t234 -102q207 -68 290 -164t83 -266q0 -207 -154.5 -322t-417.5 -115q-121 0 -231.5 21.5t-179.5 42.5l26 287 q35 -25 145.5 -61t221.5 -36q109 0 177.5 43t68.5 117q0 57 -51.5 105.5t-204.5 99.5q-203 66 -302.5 158t-99.5 268z" />
<glyph unicode="T" horiz-adv-x="1155" d="M25 1174v253h1105v-253h-385v-1174h-335v1174h-385z" />
<glyph unicode="U" horiz-adv-x="1488" d="M135 528v899h336v-835q0 -176 67.5 -268.5t206.5 -92.5q141 0 208 95.5t67 277.5v823h336v-868q0 -293 -152.5 -438.5t-455.5 -145.5q-297 0 -455 140.5t-158 412.5z" />
<glyph unicode="V" horiz-adv-x="1425" d="M18 1427h359l346 -1112l346 1112h340l-496 -1427h-399z" />
<glyph unicode="W" horiz-adv-x="2064" d="M16 1427h349l233 -1110l225 1110h428l234 -1108l235 1108h326l-358 -1427h-416l-242 1120l-233 -1120h-418z" />
<glyph unicode="X" horiz-adv-x="1435" d="M18 0l476 748l-428 679h391l276 -485l279 485h366l-432 -679l473 -748h-399l-309 539l-308 -539h-385z" />
<glyph unicode="Y" horiz-adv-x="1425" d="M20 1427h392l307 -579l311 579h373l-520 -870v-557h-336v555z" />
<glyph unicode="Z" horiz-adv-x="1208" d="M59 0v254l682 920h-657v253h1038v-256l-694 -917h705v-254h-1074z" />
<glyph unicode="[" horiz-adv-x="749" d="M166 -293v1831l297 2h215v-217h-119l-108 2v-1405l108 2h119v-217h-215z" />
<glyph unicode="\" horiz-adv-x="673" d="M-2 1452h233l443 -1477h-234z" />
<glyph unicode="]" horiz-adv-x="749" d="M78 -78h115l106 -2v1405l-106 -2h-115v217h213l293 -2v-1831l-293 -2h-213v217z" />
<glyph unicode="^" horiz-adv-x="1226" d="M139 657l365 770h213l366 -770h-231l-242 517l-239 -517h-232z" />
<glyph unicode="_" horiz-adv-x="1024" d="M0 -154h1030v-102h-1030v102z" />
<glyph unicode="`" horiz-adv-x="628" d="M18 1489h334l152 -297h-209z" />
<glyph unicode="a" horiz-adv-x="1189" d="M68 287q0 168 132 257t384 91l182 -2q0 102 -64.5 143t-177.5 41q-88 0 -177 -28.5t-152 -75.5l-7 245q61 33 173 56.5t221 23.5q248 0 365.5 -105.5t117.5 -334.5v-295q0 -123 7 -209t13 -86l5 -4l-291 -4q-8 0 -12.5 49t-6.5 121q-59 -100 -146 -147.5t-190 -47.5 q-176 0 -276 87.5t-100 224.5zM371 313q0 -53 41 -84.5t118 -31.5q106 0 171 77.5t65 165.5v25q-14 -6 -51 -6t-90 -2q-129 -2 -191.5 -38t-62.5 -106z" />
<glyph unicode="b" horiz-adv-x="1304" d="M121 0v1530h321v-656q76 98 162 131t182 33q205 0 328 -142t123 -374q0 -250 -124 -398.5t-343 -148.5q-106 0 -197.5 46.5t-150.5 138.5v-160h-301zM442 502q0 -127 68 -204t168 -77q106 0 166.5 81t60.5 214q0 125 -62.5 201t-166.5 76q-109 0 -170.5 -84t-63.5 -187 v-20z" />
<glyph unicode="c" horiz-adv-x="970" d="M68 514q0 233 158.5 378.5t414.5 145.5q82 0 154.5 -13t122.5 -36l-25 -241q-23 16 -80 32.5t-123 16.5q-131 0 -210 -78t-79 -207q0 -135 81 -215t218 -80q78 0 138.5 15.5t79.5 19.5l10 -244q-29 -6 -102.5 -19.5t-170.5 -13.5q-270 0 -428.5 144.5t-158.5 394.5z" />
<glyph unicode="d" horiz-adv-x="1304" d="M68 512q0 229 116.5 377.5t331.5 148.5q92 0 180 -30.5t162 -124.5v647h320v-1530h-299v156q-63 -96 -153.5 -138.5t-190.5 -42.5q-217 0 -342 146.5t-125 390.5zM401 512q0 -129 61.5 -210t166.5 -81q98 0 162.5 80t66.5 191v22q-2 127 -67.5 203t-163.5 76 q-100 0 -163 -78t-63 -203z" />
<glyph unicode="e" horiz-adv-x="1191" d="M66 508q0 242 144 386t384 144q266 0 391 -159.5t125 -440.5l2 -24h-733q25 -94 70 -140q80 -78 243 -77q104 0 201.5 27.5t134.5 47.5v-239q-76 -27 -166 -42.5t-203 -15.5q-276 0 -434.5 141.5t-158.5 391.5zM377 608h418l22 -2q-2 109 -57 163t-158 54 q-111 0 -172 -84q-37 -47 -53 -131z" />
<glyph unicode="f" horiz-adv-x="841" d="M35 786v228h211v131q0 207 97 308t294 101q66 0 115 -7t75 -13l-18 -242q-20 10 -44 18.5t-71 8.5q-74 0 -103.5 -46t-31.5 -124v-135h250v-228h-250v-786h-317v786h-207z" />
<glyph unicode="g" horiz-adv-x="1304" d="M68 506q0 246 123.5 389t343.5 143q90 0 173 -38.5t140 -120.5v135h321v-903q0 -293 -143 -429.5t-440 -136.5q-141 0 -251 28t-140 44l18 262q37 -29 138.5 -60.5t191.5 -31.5q158 0 238.5 78t80.5 241v68q-61 -92 -150 -134t-184 -42q-215 0 -337.5 137.5t-122.5 370.5 zM401 516q0 -119 62.5 -194.5t163.5 -75.5q100 0 163.5 73.5t63.5 186.5v20q-2 123 -62.5 194t-166.5 71q-102 0 -163 -75t-61 -200z" />
<glyph unicode="h" horiz-adv-x="1304" d="M127 0v1530h319v-670q59 82 143.5 130t209.5 48q184 0 281.5 -107.5t97.5 -303.5v-627h-320v563q0 100 -45 158.5t-131 58.5q-113 0 -173 -81t-63 -234v-465h-319z" />
<glyph unicode="i" horiz-adv-x="624" d="M150 1329q0 131 2 133t159 2q158 0 160 -2t2 -133t-2 -133t-160 -2t-159.5 2t-1.5 133zM152 0v1014h319v-1014h-319z" />
<glyph unicode="j" horiz-adv-x="624" d="M-37 -436l4 217l76 2q63 6 87 52t24 149v1030h317v-1067q0 -195 -86 -298.5t-252 -103.5q-72 0 -113 6.5t-57 12.5zM150 1329q0 131 2 133t159 2q158 0 160 -2t2 -133t-2 -133t-160 -2t-159.5 2t-1.5 133z" />
<glyph unicode="k" horiz-adv-x="1191" d="M129 0v1530h320v-940l325 424h365l-383 -461l422 -553h-398l-331 504v2v-506h-320z" />
<glyph unicode="l" horiz-adv-x="624" d="M152 0v1530h319v-1530h-319z" />
<glyph unicode="m" horiz-adv-x="1939" d="M127 0v1014h299v-174q57 96 143 147t213 51q119 0 204 -56t116 -146q45 86 133 144t227 58q184 0 269.5 -102t85.5 -309v-627h-320v565q0 106 -40 160.5t-126 54.5q-100 0 -147 -79.5t-49 -235.5v-465h-324v565q0 106 -35 160.5t-114 54.5q-106 0 -158.5 -81t-57.5 -232 v-467h-319z" />
<glyph unicode="n" horiz-adv-x="1304" d="M127 0v1014h299v-174q59 96 150.5 147t222.5 51q184 0 281.5 -107.5t97.5 -303.5v-627h-320v563q0 100 -45 158.5t-131 58.5q-113 0 -173 -81t-63 -234v-465h-319z" />
<glyph unicode="o" horiz-adv-x="1306" d="M70 506q0 242 160.5 387t422.5 145t423 -145t161 -387q0 -240 -161 -385.5t-423 -145.5t-422.5 145.5t-160.5 385.5zM403 506q0 -137 66 -217t184 -80q119 0 184.5 80t65.5 217q0 141 -64.5 220t-185.5 79t-185.5 -79t-64.5 -220z" />
<glyph unicode="p" horiz-adv-x="1304" d="M121 -432v1446h301v-174q70 115 161 156.5t197 41.5q211 0 334 -145t123 -387q0 -240 -130 -385.5t-343 -145.5q-90 0 -179 37t-145 127v-571h-319zM440 502q2 -117 66.5 -199t169.5 -82q102 0 165.5 81t63.5 208q0 129 -61.5 205t-167.5 76q-100 0 -166 -76t-70 -191 v-22z" />
<glyph unicode="q" horiz-adv-x="1304" d="M68 514q0 236 123.5 380t330.5 144q117 0 209 -45t154 -145v166h200l99 4v-1450h-322l2 571q-68 -94 -149.5 -129t-171.5 -35q-219 0 -347 147.5t-128 391.5zM401 508q0 -129 62.5 -208t167.5 -79q104 0 168.5 84t64.5 197v22q-2 113 -67.5 190t-167.5 77 q-104 0 -166 -78t-62 -205z" />
<glyph unicode="r" horiz-adv-x="858" d="M131 0v1014h289v-228q47 135 129 193.5t176 58.5q39 0 63 -5l46 -9l-15 -289q-18 4 -47 11.5t-72 7.5q-123 0 -186 -91.5t-65 -248.5v-414h-318z" />
<glyph unicode="s" horiz-adv-x="964" d="M68 717q0 154 127 237.5t319 83.5q86 0 174 -15t148 -34l-21 -231q-47 27 -122 43t-146 16q-84 0 -125 -21.5t-41 -64.5q0 -35 45 -57.5t184 -57.5q147 -37 215 -111.5t68 -195.5q0 -160 -125 -247t-344 -87q-100 0 -194.5 14.5t-153.5 37.5l20 243q25 -10 116 -40.5 t194 -30.5q76 0 119.5 21.5t43.5 74.5q0 45 -46 71.5t-163 55.5q-123 25 -207.5 91.5t-84.5 203.5z" />
<glyph unicode="t" horiz-adv-x="851" d="M25 786v220l208 8l13 227l299 96l2 -323h258v-228h-258v-413q0 -84 35.5 -126t105.5 -42q43 0 75 8t48 16l8 -229q-25 -8 -87 -16.5t-132 -8.5q-184 0 -277.5 90.5t-93.5 268.5v452h-204z" />
<glyph unicode="u" horiz-adv-x="1304" d="M125 391v623h319v-527q0 -129 43 -191.5t142 -62.5q104 0 164.5 81t64.5 235v465h318v-1014h-295v180q-45 -84 -140.5 -144.5t-222.5 -60.5q-190 0 -291.5 107.5t-101.5 308.5z" />
<glyph unicode="v" horiz-adv-x="1187" d="M23 1014h344l239 -713l240 713h321l-395 -1014h-356z" />
<glyph unicode="w" horiz-adv-x="1863" d="M20 1014h338l203 -729l203 735l117 -6h254l208 -727l195 727h311l-329 -1014h-367l-207 739l-219 -739h-360z" />
<glyph unicode="x" horiz-adv-x="1191" d="M18 0l363 524l-332 490h379l184 -307l185 307h348l-326 -488l359 -526h-387l-209 338l-205 -338h-359z" />
<glyph unicode="y" horiz-adv-x="1187" d="M20 1014h349l243 -695l234 695h325l-444 -1098q-63 -190 -160.5 -280.5t-251.5 -90.5q-92 0 -149 10.5t-74 14.5l21 231l133 -20q72 0 118 40t58 113l12 27z" />
<glyph unicode="z" horiz-adv-x="1026" d="M59 0v252l510 522h-491v240h870v-248l-506 -526h519v-240h-902z" />
<glyph unicode="{" horiz-adv-x="743" d="M55 535v176q102 14 136 57t34 158v342q0 98 75 185t241 87h159v-178h-92q-51 0 -81.5 -27.5t-30.5 -105.5v-332q0 -133 -57.5 -197.5t-176.5 -76.5q119 -12 176.5 -77t57.5 -198v-332q0 -78 29.5 -105.5t82.5 -27.5h92v-178h-159q-166 0 -241 87t-75 185v342 q0 115 -34 158.5t-136 57.5z" />
<glyph unicode="|" horiz-adv-x="460" d="M113 -49v1585h233v-1585h-233z" />
<glyph unicode="}" horiz-adv-x="743" d="M41 -117h94q51 0 83 28t32 105v332q0 133 58.5 197.5t178.5 77.5q-121 12 -179 76.5t-58 197.5v332q0 78 -31 105.5t-84 27.5h-94v178h160q170 0 244.5 -87t74.5 -185v-342q0 -115 35 -158t139 -57v-176q-104 -14 -139 -57.5t-35 -158.5v-342q0 -98 -74.5 -185 t-244.5 -87h-160v178z" />
<glyph unicode="~" horiz-adv-x="1226" d="M135 532q35 66 100.5 121.5t155.5 55.5q102 0 236.5 -70t203.5 -70q63 0 113.5 49.5t77.5 94.5l72 -205q-35 -66 -99.5 -121t-156.5 -55q-102 0 -236.5 69.5t-204.5 69.5q-61 0 -114.5 -49t-75.5 -94z" />
<glyph unicode="&#xa0;" />
<glyph unicode="&#xa1;" horiz-adv-x="839" d="M246 -371l12 299l37 674h248l37 -665l10 -308h-344zM258 899q0 154 2 156t158 2q158 0 160 -2t2 -154q0 -154 -2.5 -156t-157.5 -2q-158 0 -160 2t-2 154z" />
<glyph unicode="&#xa2;" horiz-adv-x="1189" d="M158 514q0 233 158.5 378.5t414.5 145.5q45 0 86 -4l66 211h123l-72 -231q43 -10 74 -25l-25 -241q-23 16 -80 32q-18 6 -41 8l-174 -557q39 -14 103 -14q78 0 138 15.5t79 19.5l10 -244q-29 -6 -102.5 -19.5t-170.5 -13.5q-84 0 -135 11l-71 -232h-123l82 260 q-115 45 -183 105q-157 145 -157 395zM492 512q0 -135 79 -215l11 -10l159 508q-106 -12 -172 -76q-77 -78 -77 -207z" />
<glyph unicode="&#xa3;" horiz-adv-x="1191" d="M106 0v229l5 15h174l4 248v163h-162v179h166l2 131q2 215 138 351t392 136q86 0 154 -11t111 -24l-5 -59l-6 -191q-37 14 -82 22.5t-94 8.5q-133 0 -204.5 -63.5t-73.5 -214.5l-2 -86h299v-179h-304l-2 -225v-186h457h8v-242h-544h-156z" />
<glyph unicode="&#xa4;" d="M68 311l114 121q-45 61 -67.5 132t-22.5 151t21.5 150.5t68.5 131.5l-114 121l127 127l120 -115q61 45 131 68t152 23q80 0 150.5 -21.5t132.5 -69.5l120 115l127 -127l-114 -121q45 -61 67.5 -131.5t22.5 -150.5t-22.5 -150.5t-67.5 -132.5l114 -121l-127 -127l-120 115 q-61 -45 -132 -67.5t-151 -22.5q-82 0 -151.5 21.5t-131.5 68.5l-120 -115zM332 715q0 -111 77.5 -188.5t188.5 -77.5t188.5 77.5t77.5 188.5t-77.5 188.5t-188.5 77.5t-188.5 -77.5t-77.5 -188.5z" />
<glyph unicode="&#xa5;" d="M-10 1432h334l276 -605l277 605h325l-344 -676h205v-170h-291l-12 -25v-102h303v-170h-303v-289h-324v289h-305v170h305v98l-14 29h-291v170h203z" />
<glyph unicode="&#xa6;" horiz-adv-x="460" d="M113 -49v588h233v-588h-233zM113 948v588h233v-588h-233z" />
<glyph unicode="&#xa7;" horiz-adv-x="1189" d="M125 573q0 82 37 154t133 139q-59 37 -99 99.5t-40 140.5q0 170 133 258t342 88q78 0 180 -18.5t152 -36.5l-19 -226q0 -8 -6 -10q-6 0 -8 6q-53 23 -135 40.5t-152 17.5q-74 0 -128 -24.5t-54 -90.5q0 -51 50 -85t130 -60l160 -66q127 -47 193.5 -127t66.5 -184 q0 -82 -36 -154t-134 -139q61 -37 100 -99.5t39 -140.5q0 -170 -142.5 -258t-365.5 -88q-86 0 -194.5 18.5t-161.5 36.5l16 226q70 -18 161 -35.5t173 -17.5q84 0 146.5 24.5t62.5 89.5q0 51 -50 85t-128 61l-160 65q-129 47 -195.5 127t-66.5 184zM385 639q0 -59 30.5 -97 t112.5 -73l201 -88q29 27 50.5 67.5t21.5 75.5q0 57 -31 95t-113 75l-198 88q-31 -27 -52.5 -67.5t-21.5 -75.5z" />
<glyph unicode="&#xa8;" horiz-adv-x="628" d="M-41 1348q0 137 1 139t132 2q133 0 135 -2t2 -139t-2 -139.5t-133 -2.5q-133 0 -134 2.5t-1 139.5zM401 1348q0 137 1 139t133 2q133 0 135 -2t2 -139t-2 -139.5t-133 -2.5q-133 0 -134.5 2.5t-1.5 139.5z" />
<glyph unicode="&#xa9;" horiz-adv-x="1632" d="M76 715q0 305 216 522t521 217q307 0 523 -217t216 -522t-216 -522.5t-521 -217.5q-307 0 -523 217.5t-216 522.5zM297 715q0 -233 151.5 -398t364.5 -165q215 0 366.5 164.5t151.5 396.5q0 233 -151.5 398t-364.5 165q-215 0 -366.5 -165t-151.5 -396zM430 715 q0 190 109.5 310t302.5 120q133 0 226 -75t116 -230l-180 -2q-14 61 -57.5 95t-108.5 34q-96 0 -144.5 -70t-48.5 -178q0 -106 49 -180t142 -74q63 0 109 31.5t59 99.5l114 -2h68q-20 -160 -119.5 -233.5t-230.5 -73.5q-174 0 -290 119t-116 309z" />
<glyph unicode="&#xaa;" horiz-adv-x="1189" d="M47 973q0 100 89 153.5t257 55.5l123 -2q0 61 -44 85.5t-118 24.5q-59 0 -119.5 -16.5t-101.5 -44.5l-4 147q41 18 115.5 32.5t146.5 14.5q166 0 245 -63.5t79 -200.5v-176q0 -74 5 -126t9 -52l-192 -4l-13 102q-39 -61 -97 -89t-128 -28q-117 0 -184.5 52.5t-67.5 134.5 zM250 989q0 -33 27.5 -51t80.5 -18q70 0 114 46t44 99v14l-96 -4q-86 -2 -128 -23.5t-42 -62.5z" />
<glyph unicode="&#xab;" horiz-adv-x="1198" d="M570 547l256 422h288l-245 -422l225 -422h-289zM90 547l256 422h288l-245 -422l225 -422h-289z" />
<glyph unicode="&#xac;" horiz-adv-x="1226" d="M96 633v237h1039v-649h-238v412h-801z" />
<glyph unicode="&#xad;" horiz-adv-x="681" d="M68 668h544v-248h-544v248z" />
<glyph unicode="&#xae;" horiz-adv-x="1632" d="M76 715q0 305 216 522t521 217q307 0 523 -217t216 -522t-216 -522.5t-521 -217.5q-307 0 -523 217.5t-216 522.5zM297 715q0 -233 151.5 -398t364.5 -165q215 0 366.5 164.5t151.5 396.5q0 233 -151.5 398t-364.5 165q-215 0 -366.5 -165t-151.5 -396zM518 311v811h334 q168 0 235.5 -62.5t67.5 -160.5q0 -102 -49 -164.5t-174 -68.5l207 -347l-187 -8l-94 174q-45 86 -96 168h-60v-342h-184zM702 795h138q74 0 102.5 27.5t28.5 70.5t-37 63.5t-98 20.5h-134v-182z" />
<glyph unicode="&#xaf;" horiz-adv-x="628" d="M-27 1264v170h686v-170h-686z" />
<glyph unicode="&#xb0;" horiz-adv-x="819" d="M94 1141q0 131 92.5 223t223.5 92t223 -92t92 -223t-92 -223.5t-223 -92.5t-223.5 92.5t-92.5 223.5zM246 1141q0 -68 48 -116t116 -48t115.5 48t47.5 116t-48 116t-115 48q-68 0 -116 -48t-48 -116z" />
<glyph unicode="&#xb1;" horiz-adv-x="1226" d="M96 0v240h1039v-240h-1039zM96 559v240h400v256h239v-256h400v-240h-400v-254h-239v254h-400z" />
<glyph unicode="&#xb2;" horiz-adv-x="774" d="M51 584v149l131 104q63 52 125 111q61 57 110.5 121t49.5 123q0 51 -39 81t-102 30q-78 0 -149 -26t-91 -40l-12 160q33 18 115.5 37.5t175.5 19.5q154 0 239.5 -65.5t85.5 -184.5q0 -90 -64.5 -181t-117.5 -138l-172 -152h381l-2 -149h-664z" />
<glyph unicode="&#xb3;" horiz-adv-x="774" d="M55 600l13 162q20 -12 82.5 -26.5t142.5 -14.5q86 0 141 31.5t55 85.5q0 61 -53 86.5t-145 25.5h-90v146l69 -2q96 0 151.5 26.5t55.5 79.5q0 51 -43 77t-125 26q-72 0 -129 -14.5t-84 -26.5l-12 153q29 12 101.5 25.5t168.5 13.5q162 0 254 -58.5t92 -168.5 q0 -72 -48 -123t-132 -74q96 -14 143.5 -66.5t47.5 -132.5q0 -125 -105.5 -193.5t-283.5 -68.5q-92 0 -160 9.5t-107 21.5z" />
<glyph unicode="&#xb4;" horiz-adv-x="628" d="M137 1192l152 297h334l-275 -297h-211z" />
<glyph unicode="&#xb5;" horiz-adv-x="1308" d="M129 -426v1440h317v-527q0 -129 43 -191.5t142 -62.5q106 0 166.5 81t64.5 235v465h318v-1014h-295v180q-35 -84 -118 -142t-196 -63q-39 0 -70.5 11.5t-47.5 29.5v-442h-324z" />
<glyph unicode="&#xb6;" horiz-adv-x="1263" d="M20 1061q0 186 116 278.5t335 92.5h670v-13l-6 -1671v-12h-230v1517h-205v-1517h-229v969q-238 8 -344.5 100t-106.5 256z" />
<glyph unicode="&#xb7;" horiz-adv-x="595" d="M137 580q0 154 2 155.5t158 1.5t158 -2t2 -155q0 -154 -2 -156t-158 -2t-158 2t-2 156z" />
<glyph unicode="&#xb8;" horiz-adv-x="628" d="M137 -408l35 105q8 -6 52 -21.5t102 -15.5q53 0 80.5 16.5t27.5 51.5q0 33 -21.5 52t-58.5 19l-71 -14l-52 49l101 166h133l-78 -123l94 14q72 0 115 -43t43 -116q0 -88 -71.5 -135.5t-194.5 -47.5q-78 0 -138.5 14.5t-97.5 28.5z" />
<glyph unicode="&#xb9;" horiz-adv-x="774" d="M55 1255l297 185h191l2 -856h-226v655l-163 -113z" />
<glyph unicode="&#xba;" horiz-adv-x="1306" d="M35 1104q0 145 107.5 232t283.5 87q174 0 282.5 -87t108.5 -232q0 -143 -108.5 -230.5t-282.5 -87.5q-176 0 -283.5 87.5t-107.5 230.5zM258 1104q0 -82 44 -130t124 -48t123 48t43 130q0 86 -43 133t-123 47q-82 0 -125 -47t-43 -133z" />
<glyph unicode="&#xbb;" horiz-adv-x="1198" d="M559 969h289l256 -422l-6 -10l-229 -412h-289l225 422zM79 969h289l256 -422l-6 -10l-229 -412h-289l225 422z" />
<glyph unicode="&#xbc;" horiz-adv-x="1796" d="M61 1255l297 185h191l2 -856h-225v655l-164 -113zM373 -45l831 1518h195l-830 -1518h-196zM987 172v160l377 524l51 -180l-252 -363h252v363l-51 180h254v-543h127v-141h-127v-172h-203v172h-428z" />
<glyph unicode="&#xbd;" horiz-adv-x="1796" d="M45 1255l297 185h190l3 -856h-226v655l-164 -113zM334 -45l831 1518h195l-830 -1518h-196zM1073 0v150l131 103q63 52 125 112q61 57 110.5 120.5t49.5 122.5q0 51 -39 81t-102 30q-78 0 -149 -25.5t-91 -40.5l-12 160q33 18 115.5 37.5t174.5 19.5q154 0 240 -65.5 t86 -183.5q0 -90 -64.5 -181.5t-117.5 -138.5l-172 -151h381l-2 -150h-664z" />
<glyph unicode="&#xbe;" horiz-adv-x="1796" d="M51 600l12 162q20 -12 83 -26.5t143 -14.5q86 0 141 31.5t55 85.5q0 61 -53 86.5t-145 25.5h-90v146l69 -2q96 0 151.5 26.5t55.5 79.5q0 51 -43 77t-125 26q-72 0 -129 -14.5t-84 -26.5l-12 153q29 12 101.5 25.5t168.5 13.5q162 0 254 -58.5t92 -168.5q0 -72 -48 -123 t-132 -74q96 -14 143.5 -66.5t47.5 -132.5q0 -125 -105.5 -193.5t-284.5 -68.5q-92 0 -159.5 9.5t-106.5 21.5zM385 -45l832 1518h194l-829 -1518h-197zM997 172v160l377 524l51 -180l-251 -363h251v363l-51 180h254v-543h127v-141h-127v-172h-203v172h-428z" />
<glyph unicode="&#xbf;" horiz-adv-x="1067" d="M68 -45q0 106 59 196.5t117 141.5q90 96 122.5 160.5t36.5 121.5l3 29h270l2 -43q-4 -80 -43 -162t-117 -170q-43 -39 -81 -101t-38 -128q0 -70 63.5 -112t174.5 -42q82 0 168 27t135 49l10 -256q-61 -18 -167.5 -39.5t-237.5 -21.5q-238 0 -357.5 101.5t-119.5 248.5z M379 901q0 154 2 156t158 2q158 0 159.5 -2t1.5 -154q0 -154 -2 -156t-157 -2q-158 0 -160 2t-2 154z" />
<glyph unicode="&#xc0;" horiz-adv-x="1542" d="M16 0l553 1427h396l563 -1427h-369l-115 313h-567l-117 -313h-344zM565 561h393l-192 580zM444 1811h334l152 -297h-209z" />
<glyph unicode="&#xc1;" horiz-adv-x="1542" d="M16 0l553 1427h396l563 -1427h-369l-115 313h-567l-117 -313h-344zM565 561h393l-192 580zM606 1514l152 297h334l-275 -297h-211z" />
<glyph unicode="&#xc2;" horiz-adv-x="1542" d="M16 0l553 1427h396l563 -1427h-369l-115 313h-567l-117 -313h-344zM565 561h393l-192 580zM412 1512l225 301h266l228 -301h-215l-146 166l-143 -166h-215z" />
<glyph unicode="&#xc3;" horiz-adv-x="1542" d="M16 0l553 1427h396l563 -1427h-369l-115 313h-567l-117 -313h-344zM565 561h393l-192 580zM387 1530q8 106 71 188.5t165 82.5q70 0 162 -38t147 -38q39 0 64.5 24.5t27.5 61.5h131q-8 -106 -70.5 -188t-164.5 -82q-70 0 -162 37.5t-147 37.5q-39 0 -64.5 -24.5 t-28.5 -61.5h-131z" />
<glyph unicode="&#xc4;" horiz-adv-x="1542" d="M16 0l553 1427h396l563 -1427h-369l-115 313h-567l-117 -313h-344zM565 561h393l-192 580zM416 1670q0 137 1 139t132 2q133 0 135 -2t2 -139t-2 -139.5t-133 -2.5q-133 0 -134 2.5t-1 139.5zM858 1670q0 137 1 139t133 2q133 0 135 -2t2 -139t-2 -139.5t-133 -2.5 q-133 0 -134.5 2.5t-1.5 139.5z" />
<glyph unicode="&#xc5;" horiz-adv-x="1542" d="M16 0l553 1427h396l563 -1427h-369l-115 313h-567l-117 -313h-344zM565 561h393l-192 580zM772 1934q92 0 158 -65.5t66 -158.5q0 -92 -65.5 -157.5t-158.5 -65.5q-92 0 -157.5 65.5t-65.5 157.5t65.5 158t157.5 66zM772 1815q-43 0 -73.5 -30.5t-30.5 -74.5 q0 -43 30.5 -73.5t73.5 -30.5t74 30.5t31 73.5t-31 74t-74 31z" />
<glyph unicode="&#xc6;" horiz-adv-x="2002" d="M-2 0l10 6l764 1424l1122 -3v-245h-577l16 -326h518v-246h-508l17 -364h551v-246h-883l-14 328h-486l-168 -328h-362zM662 578h344l-23 610h-8z" />
<glyph unicode="&#xc7;" horiz-adv-x="1325" d="M90 705q0 344 215 545.5t578 201.5q127 0 229 -23.5t164 -46.5l-27 -278q-72 45 -162 68.5t-184 23.5q-209 0 -338 -135t-129 -350q0 -217 131 -348.5t351 -131.5q98 0 191 22.5t153 49.5l18 -270q-80 -23 -180.5 -40.5t-212.5 -17.5q-371 0 -584 194t-213 536zM555 -408 l35 105q8 -6 52 -21.5t102 -15.5q53 0 80.5 16.5t27.5 51.5q0 33 -21.5 52t-58.5 19l-71 -14l-52 49l101 166h133l-78 -123l94 14q72 0 115 -43t43 -116q0 -88 -71.5 -135.5t-194.5 -47.5q-78 0 -138.5 14.5t-97.5 28.5z" />
<glyph unicode="&#xc8;" horiz-adv-x="1202" d="M145 0v1427h934v-245h-598v-326h555v-246h-555v-362h611v-248h-947zM274 1811h334l152 -297h-209z" />
<glyph unicode="&#xc9;" horiz-adv-x="1202" d="M145 0v1427h934v-245h-598v-326h555v-246h-555v-362h611v-248h-947zM436 1514l152 297h334l-275 -297h-211z" />
<glyph unicode="&#xca;" horiz-adv-x="1202" d="M145 0v1427h934v-245h-598v-326h555v-246h-555v-362h611v-248h-947zM242 1512l225 301h266l228 -301h-215l-146 166l-143 -166h-215z" />
<glyph unicode="&#xcb;" horiz-adv-x="1202" d="M145 0v1427h934v-245h-598v-326h555v-246h-555v-362h611v-248h-947zM246 1670q0 137 1 139t132 2q133 0 135 -2t2 -139t-2 -139.5t-133 -2.5q-133 0 -134 2.5t-1 139.5zM688 1670q0 137 1 139t133 2q133 0 135 -2t2 -139t-2 -139.5t-133 -2.5q-133 0 -134.5 2.5 t-1.5 139.5z" />
<glyph unicode="&#xcc;" horiz-adv-x="630" d="M150 0v1427h335v-1427h-335zM-13 1811h334l152 -297h-209z" />
<glyph unicode="&#xcd;" horiz-adv-x="630" d="M150 0v1427h335v-1427h-335zM149 1514l152 297h334l-275 -297h-211z" />
<glyph unicode="&#xce;" horiz-adv-x="630" d="M150 0v1427h335v-1427h-335zM-45 1512l225 301h266l228 -301h-215l-146 166l-143 -166h-215z" />
<glyph unicode="&#xcf;" horiz-adv-x="630" d="M150 0v1427h335v-1427h-335zM-41 1670q0 137 1 139t132 2q133 0 135 -2t2 -139t-2 -139.5t-133 -2.5q-133 0 -134 2.5t-1 139.5zM401 1670q0 137 1 139t133 2q133 0 135 -2t2 -139t-2 -139.5t-133 -2.5q-133 0 -134.5 2.5t-1.5 139.5z" />
<glyph unicode="&#xd0;" horiz-adv-x="1544" d="M10 662v192h140v580l487 -7q410 0 609.5 -182t199.5 -532q0 -352 -209 -532.5t-614 -180.5h-473v662h-140zM485 254h154q213 0 337 125t124 340q0 205 -125 330t-328 125h-162v-320h320v-192h-320v-408z" />
<glyph unicode="&#xd1;" horiz-adv-x="1548" d="M147 0v1427h418l522 -1017v1017h316v-1427h-408l-12 23l-520 987v-1010h-316zM391 1530q8 106 71 188.5t165 82.5q70 0 162 -38t147 -38q39 0 64.5 24.5t27.5 61.5h131q-8 -106 -70.5 -188t-164.5 -82q-70 0 -162 37.5t-147 37.5q-39 0 -64.5 -24.5t-28.5 -61.5h-131z " />
<glyph unicode="&#xd2;" horiz-adv-x="1603" d="M88 713q0 352 185.5 545.5t527.5 193.5q340 0 525 -193.5t185 -545.5q0 -344 -188 -541t-522 -197q-336 0 -524.5 197t-188.5 541zM434 713q0 -221 96.5 -351.5t270.5 -130.5q172 0 268 130.5t96 351.5q0 223 -96 353t-268 130q-174 0 -270.5 -130t-96.5 -353zM475 1811 h334l152 -297h-209z" />
<glyph unicode="&#xd3;" horiz-adv-x="1603" d="M88 713q0 352 185.5 545.5t527.5 193.5q340 0 525 -193.5t185 -545.5q0 -344 -188 -541t-522 -197q-336 0 -524.5 197t-188.5 541zM434 713q0 -221 96.5 -351.5t270.5 -130.5q172 0 268 130.5t96 351.5q0 223 -96 353t-268 130q-174 0 -270.5 -130t-96.5 -353zM637 1514 l152 297h334l-275 -297h-211z" />
<glyph unicode="&#xd4;" horiz-adv-x="1603" d="M88 713q0 352 185.5 545.5t527.5 193.5q340 0 525 -193.5t185 -545.5q0 -344 -188 -541t-522 -197q-336 0 -524.5 197t-188.5 541zM434 713q0 -221 96.5 -351.5t270.5 -130.5q172 0 268 130.5t96 351.5q0 223 -96 353t-268 130q-174 0 -270.5 -130t-96.5 -353zM442 1512 l225 301h266l228 -301h-215l-146 166l-143 -166h-215z" />
<glyph unicode="&#xd5;" horiz-adv-x="1603" d="M88 713q0 352 185.5 545.5t527.5 193.5q340 0 525 -193.5t185 -545.5q0 -344 -188 -541t-522 -197q-336 0 -524.5 197t-188.5 541zM434 713q0 -221 96.5 -351.5t270.5 -130.5q172 0 268 130.5t96 351.5q0 223 -96 353t-268 130q-174 0 -270.5 -130t-96.5 -353zM417 1530 q8 106 71 188.5t165 82.5q70 0 162 -38t147 -38q39 0 64.5 24.5t27.5 61.5h131q-8 -106 -70.5 -188t-164.5 -82q-70 0 -162 37.5t-147 37.5q-39 0 -64.5 -24.5t-28.5 -61.5h-131z" />
<glyph unicode="&#xd6;" horiz-adv-x="1603" d="M88 713q0 352 185.5 545.5t527.5 193.5q340 0 525 -193.5t185 -545.5q0 -344 -188 -541t-522 -197q-336 0 -524.5 197t-188.5 541zM434 713q0 -221 96.5 -351.5t270.5 -130.5q172 0 268 130.5t96 351.5q0 223 -96 353t-268 130q-174 0 -270.5 -130t-96.5 -353zM446 1670 q0 137 1 139t132 2q133 0 135 -2t2 -139t-2 -139.5t-133 -2.5q-133 0 -134 2.5t-1 139.5zM888 1670q0 137 1 139t133 2q133 0 135 -2t2 -139t-2 -139.5t-133 -2.5q-133 0 -134.5 2.5t-1.5 139.5z" />
<glyph unicode="&#xd7;" horiz-adv-x="1226" d="M131 209l322 321l-322 322l162 162l321 -322l322 322l162 -162l-322 -322l322 -321l-162 -162l-322 322l-321 -322z" />
<glyph unicode="&#xd8;" horiz-adv-x="1603" d="M86 713q0 352 188.5 545.5t532.5 193.5q281 0 432 -113l139 160l115 -104l-137 -158q170 -184 170 -524q0 -350 -187.5 -544t-531.5 -194q-289 0 -449 121l-149 -172q-16 20 -59.5 56t-55.5 49l152 172q-160 182 -160 512zM432 713q0 -156 41 -250l567 649 q-84 84 -233 84q-176 0 -275.5 -130t-99.5 -353zM561 328q88 -96 246 -97q176 0 274.5 130.5t98.5 351.5q0 170 -50 268z" />
<glyph unicode="&#xd9;" horiz-adv-x="1488" d="M135 528v899h336v-835q0 -176 67.5 -268.5t206.5 -92.5q141 0 208 95.5t67 277.5v823h336v-868q0 -293 -152.5 -438.5t-455.5 -145.5q-297 0 -455 140.5t-158 412.5zM417 1811h334l152 -297h-209z" />
<glyph unicode="&#xda;" horiz-adv-x="1488" d="M135 528v899h336v-835q0 -176 67.5 -268.5t206.5 -92.5q141 0 208 95.5t67 277.5v823h336v-868q0 -293 -152.5 -438.5t-455.5 -145.5q-297 0 -455 140.5t-158 412.5zM579 1514l152 297h334l-275 -297h-211z" />
<glyph unicode="&#xdb;" horiz-adv-x="1488" d="M135 528v899h336v-835q0 -176 67.5 -268.5t206.5 -92.5q141 0 208 95.5t67 277.5v823h336v-868q0 -293 -152.5 -438.5t-455.5 -145.5q-297 0 -455 140.5t-158 412.5zM385 1512l225 301h266l228 -301h-215l-146 166l-143 -166h-215z" />
<glyph unicode="&#xdc;" horiz-adv-x="1488" d="M135 528v899h336v-835q0 -176 67.5 -268.5t206.5 -92.5q141 0 208 95.5t67 277.5v823h336v-868q0 -293 -152.5 -438.5t-455.5 -145.5q-297 0 -455 140.5t-158 412.5zM389 1670q0 137 1 139t132 2q133 0 135 -2t2 -139t-2 -139.5t-133 -2.5q-133 0 -134 2.5t-1 139.5z M831 1670q0 137 1 139t133 2q133 0 135 -2t2 -139t-2 -139.5t-133 -2.5q-133 0 -134.5 2.5t-1.5 139.5z" />
<glyph unicode="&#xdd;" horiz-adv-x="1425" d="M20 1427h392l307 -579l311 579h373l-520 -870v-557h-336v555zM555 1514l152 297h334l-275 -297h-211z" />
<glyph unicode="&#xde;" horiz-adv-x="1204" d="M129 0v1427h336v-208h158q264 0 400 -111t136 -334t-143.5 -343t-399.5 -120h-151v250l115 -4q113 0 177 55.5t64 157.5q0 94 -65.5 147.5t-175.5 53.5h-115v-971h-336z" />
<glyph unicode="&#xdf;" horiz-adv-x="1306" d="M131 0v987q0 301 142.5 434t385.5 133q240 0 376 -107.5t136 -297.5q0 -117 -61 -209t-211 -137q166 -23 251 -121t85 -254q0 -193 -128 -316.5t-372 -123.5q-59 0 -108 6t-70 10l8 236q23 -2 60 -7.5t75 -5.5q109 0 159 65.5t50 176.5q0 98 -64.5 157.5t-180.5 59.5h-56 v232h39q70 0 134.5 50t64.5 156q0 109 -52.5 156t-129.5 47q-88 0 -149.5 -66.5t-61.5 -230.5v-1030h-322z" />
<glyph unicode="&#xe0;" horiz-adv-x="1189" d="M68 287q0 168 132 257t384 91l182 -2q0 102 -64.5 143t-177.5 41q-88 0 -177 -28.5t-152 -75.5l-7 245q61 33 173 56.5t221 23.5q248 0 365.5 -105.5t117.5 -334.5v-295q0 -123 7 -209t13 -86l5 -4l-291 -4q-8 0 -12.5 49t-6.5 121q-59 -100 -146 -147.5t-190 -47.5 q-176 0 -276 87.5t-100 224.5zM371 313q0 -53 41 -84.5t118 -31.5q106 0 171 77.5t65 165.5v25q-14 -6 -51 -6t-90 -2q-129 -2 -191.5 -38t-62.5 -106zM264 1489h334l152 -297h-209z" />
<glyph unicode="&#xe1;" horiz-adv-x="1189" d="M68 287q0 168 132 257t384 91l182 -2q0 102 -64.5 143t-177.5 41q-88 0 -177 -28.5t-152 -75.5l-7 245q61 33 173 56.5t221 23.5q248 0 365.5 -105.5t117.5 -334.5v-295q0 -123 7 -209t13 -86l5 -4l-291 -4q-8 0 -12.5 49t-6.5 121q-59 -100 -146 -147.5t-190 -47.5 q-176 0 -276 87.5t-100 224.5zM371 313q0 -53 41 -84.5t118 -31.5q106 0 171 77.5t65 165.5v25q-14 -6 -51 -6t-90 -2q-129 -2 -191.5 -38t-62.5 -106zM426 1192l152 297h334l-275 -297h-211z" />
<glyph unicode="&#xe2;" horiz-adv-x="1189" d="M68 287q0 168 132 257t384 91l182 -2q0 102 -64.5 143t-177.5 41q-88 0 -177 -28.5t-152 -75.5l-7 245q61 33 173 56.5t221 23.5q248 0 365.5 -105.5t117.5 -334.5v-295q0 -123 7 -209t13 -86l5 -4l-291 -4q-8 0 -12.5 49t-6.5 121q-59 -100 -146 -147.5t-190 -47.5 q-176 0 -276 87.5t-100 224.5zM371 313q0 -53 41 -84.5t118 -31.5q106 0 171 77.5t65 165.5v25q-14 -6 -51 -6t-90 -2q-129 -2 -191.5 -38t-62.5 -106zM231 1190l225 301h266l228 -301h-215l-146 166l-143 -166h-215z" />
<glyph unicode="&#xe3;" horiz-adv-x="1189" d="M68 287q0 168 132 257t384 91l182 -2q0 102 -64.5 143t-177.5 41q-88 0 -177 -28.5t-152 -75.5l-7 245q61 33 173 56.5t221 23.5q248 0 365.5 -105.5t117.5 -334.5v-295q0 -123 7 -209t13 -86l5 -4l-291 -4q-8 0 -12.5 49t-6.5 121q-59 -100 -146 -147.5t-190 -47.5 q-176 0 -276 87.5t-100 224.5zM371 313q0 -53 41 -84.5t118 -31.5q106 0 171 77.5t65 165.5v25q-14 -6 -51 -6t-90 -2q-129 -2 -191.5 -38t-62.5 -106zM206 1208q8 106 71 188.5t165 82.5q70 0 162 -38t147 -38q39 0 64.5 24.5t27.5 61.5h131q-8 -106 -70.5 -188t-164.5 -82 q-70 0 -162 37.5t-147 37.5q-39 0 -64.5 -24.5t-28.5 -61.5h-131z" />
<glyph unicode="&#xe4;" horiz-adv-x="1189" d="M68 287q0 168 132 257t384 91l182 -2q0 102 -64.5 143t-177.5 41q-88 0 -177 -28.5t-152 -75.5l-7 245q61 33 173 56.5t221 23.5q248 0 365.5 -105.5t117.5 -334.5v-295q0 -123 7 -209t13 -86l5 -4l-291 -4q-8 0 -12.5 49t-6.5 121q-59 -100 -146 -147.5t-190 -47.5 q-176 0 -276 87.5t-100 224.5zM371 313q0 -53 41 -84.5t118 -31.5q106 0 171 77.5t65 165.5v25q-14 -6 -51 -6t-90 -2q-129 -2 -191.5 -38t-62.5 -106zM235 1348q0 137 1 139t132 2q133 0 135 -2t2 -139t-2 -139.5t-133 -2.5q-133 0 -134 2.5t-1 139.5zM677 1348 q0 137 1 139t133 2q133 0 135 -2t2 -139t-2 -139.5t-133 -2.5q-133 0 -134.5 2.5t-1.5 139.5z" />
<glyph unicode="&#xe5;" horiz-adv-x="1189" d="M68 287q0 168 132 257t384 91l182 -2q0 102 -64.5 143t-177.5 41q-88 0 -177 -28.5t-152 -75.5l-7 245q61 33 173 56.5t221 23.5q248 0 365.5 -105.5t117.5 -334.5v-295q0 -123 7 -209t13 -86l5 -4l-291 -4q-8 0 -12.5 49t-6.5 121q-59 -100 -146 -147.5t-190 -47.5 q-176 0 -276 87.5t-100 224.5zM371 313q0 -53 41 -84.5t118 -31.5q106 0 171 77.5t65 165.5v25q-14 -6 -51 -6t-90 -2q-129 -2 -191.5 -38t-62.5 -106zM591 1610q92 0 158 -65.5t66 -158.5q0 -92 -65.5 -157.5t-158.5 -65.5q-92 0 -157.5 65.5t-65.5 157.5t65.5 158 t157.5 66zM591 1491q-43 0 -73.5 -30.5t-30.5 -74.5q0 -43 30.5 -73.5t73.5 -30.5t74 30.5t31 73.5t-31 74t-74 31z" />
<glyph unicode="&#xe6;" horiz-adv-x="1863" d="M59 287q0 168 132.5 257t383.5 91l185 -2q0 102 -64.5 143t-179.5 41q-88 0 -177 -28.5t-153 -75.5l-6 245q61 33 171 56.5t214 23.5q145 0 236.5 -37.5t130.5 -95.5q57 63 157.5 98t202.5 35q262 0 384 -150.5t122 -449.5l-4 -24h-723q23 -94 68 -140q80 -78 241 -77 q106 0 202.5 27.5t133.5 47.5v-239q-78 -27 -172 -42.5t-213 -15.5q-150 0 -268.5 50.5t-181.5 167.5q-51 -92 -154.5 -155t-261.5 -63q-188 0 -297 87.5t-109 224.5zM362 313q0 -53 41 -84.5t121 -31.5q106 0 171 77.5t65 165.5v25q-14 -6 -50 -6t-94 -2 q-129 -2 -191.5 -38t-62.5 -106zM1069 608h412l24 -2q-2 109 -57 163t-156 54q-111 0 -172 -84q-35 -47 -51 -131z" />
<glyph unicode="&#xe7;" horiz-adv-x="970" d="M68 514q0 233 158.5 378.5t414.5 145.5q82 0 154.5 -13t122.5 -36l-25 -241q-23 16 -80 32.5t-123 16.5q-131 0 -210 -78t-79 -207q0 -135 81 -215t218 -80q78 0 138.5 15.5t79.5 19.5l10 -244q-29 -6 -102.5 -19.5t-170.5 -13.5q-270 0 -428.5 144.5t-158.5 394.5z M334 -408l35 105q8 -6 52 -21.5t102 -15.5q53 0 80.5 16.5t27.5 51.5q0 33 -21.5 52t-58.5 19l-71 -14l-52 49l101 166h133l-78 -123l94 14q72 0 115 -43t43 -116q0 -88 -71.5 -135.5t-194.5 -47.5q-78 0 -138.5 14.5t-97.5 28.5z" />
<glyph unicode="&#xe8;" horiz-adv-x="1191" d="M66 508q0 242 144 386t384 144q266 0 391 -159.5t125 -440.5l2 -24h-733q25 -94 70 -140q80 -78 243 -77q104 0 201.5 27.5t134.5 47.5v-239q-76 -27 -166 -42.5t-203 -15.5q-276 0 -434.5 141.5t-158.5 391.5zM377 608h418l22 -2q-2 109 -57 163t-158 54 q-111 0 -172 -84q-37 -47 -53 -131zM270 1489h334l152 -297h-209z" />
<glyph unicode="&#xe9;" horiz-adv-x="1191" d="M66 508q0 242 144 386t384 144q266 0 391 -159.5t125 -440.5l2 -24h-733q25 -94 70 -140q80 -78 243 -77q104 0 201.5 27.5t134.5 47.5v-239q-76 -27 -166 -42.5t-203 -15.5q-276 0 -434.5 141.5t-158.5 391.5zM377 608h418l22 -2q-2 109 -57 163t-158 54 q-111 0 -172 -84q-37 -47 -53 -131zM432 1192l152 297h334l-275 -297h-211z" />
<glyph unicode="&#xea;" horiz-adv-x="1191" d="M66 508q0 242 144 386t384 144q266 0 391 -159.5t125 -440.5l2 -24h-733q25 -94 70 -140q80 -78 243 -77q104 0 201.5 27.5t134.5 47.5v-239q-76 -27 -166 -42.5t-203 -15.5q-276 0 -434.5 141.5t-158.5 391.5zM377 608h418l22 -2q-2 109 -57 163t-158 54 q-111 0 -172 -84q-37 -47 -53 -131zM238 1190l225 301h266l228 -301h-215l-146 166l-143 -166h-215z" />
<glyph unicode="&#xeb;" horiz-adv-x="1191" d="M66 508q0 242 144 386t384 144q266 0 391 -159.5t125 -440.5l2 -24h-733q25 -94 70 -140q80 -78 243 -77q104 0 201.5 27.5t134.5 47.5v-239q-76 -27 -166 -42.5t-203 -15.5q-276 0 -434.5 141.5t-158.5 391.5zM377 608h418l22 -2q-2 109 -57 163t-158 54 q-111 0 -172 -84q-37 -47 -53 -131zM244 1348q0 137 1 139t132 2q133 0 135 -2t2 -139t-2 -139.5t-133 -2.5q-133 0 -134 2.5t-1 139.5zM686 1348q0 137 1 139t133 2q133 0 135 -2t2 -139t-2 -139.5t-133 -2.5q-133 0 -134.5 2.5t-1.5 139.5z" />
<glyph unicode="&#xec;" horiz-adv-x="624" d="M471 0h-319v1014h319v-1014zM-13 1489h334l152 -297h-209z" />
<glyph unicode="&#xed;" horiz-adv-x="624" d="M471 0h-319v1014h319v-1014zM149 1192l152 297h334l-275 -297h-211z" />
<glyph unicode="&#xee;" horiz-adv-x="624" d="M471 0h-319v1014h319v-1014zM-45 1190l225 301h266l228 -301h-215l-146 166l-143 -166h-215z" />
<glyph unicode="&#xef;" horiz-adv-x="624" d="M471 0h-319v1014h319v-1014zM-41 1348q0 137 1 139t132 2q133 0 135 -2t2 -139t-2 -139.5t-133 -2.5q-133 0 -134 2.5t-1 139.5zM401 1348q0 137 1 139t133 2q133 0 135 -2t2 -139t-2 -139.5t-133 -2.5q-133 0 -134.5 2.5t-1.5 139.5z" />
<glyph unicode="&#xf0;" horiz-adv-x="1308" d="M70 481q0 229 137 374.5t360 145.5q80 0 157 -25.5t128 -88.5q-55 152 -217 287q-23 20 -55 45l-236 -123l-111 116l195 101q-78 43 -188 86l172 180q182 -61 284 -127l248 129l109 -117l-209 -108q111 -90 172 -164q219 -254 219 -619q0 -283 -154.5 -441.5 t-433.5 -158.5q-264 0 -420.5 136t-156.5 372zM403 485q0 -127 68 -201.5t178 -74.5q115 0 183.5 76.5t68.5 203.5t-66.5 203t-183.5 76q-115 0 -181.5 -79t-66.5 -204z" />
<glyph unicode="&#xf1;" horiz-adv-x="1304" d="M127 0v1014h299v-174q59 96 150.5 147t222.5 51q184 0 281.5 -107.5t97.5 -303.5v-627h-320v563q0 100 -45 158.5t-131 58.5q-113 0 -173 -81t-63 -234v-465h-319zM272 1208q8 106 71 188.5t165 82.5q70 0 162 -38t147 -38q39 0 64.5 24.5t27.5 61.5h131 q-8 -106 -70.5 -188t-164.5 -82q-70 0 -162 37.5t-147 37.5q-39 0 -64.5 -24.5t-28.5 -61.5h-131z" />
<glyph unicode="&#xf2;" horiz-adv-x="1306" d="M70 506q0 242 160.5 387t422.5 145t423 -145t161 -387q0 -240 -161 -385.5t-423 -145.5t-422.5 145.5t-160.5 385.5zM403 506q0 -137 66 -217t184 -80q119 0 184.5 80t65.5 217q0 141 -64.5 220t-185.5 79t-185.5 -79t-64.5 -220zM325 1489h334l152 -297h-209z" />
<glyph unicode="&#xf3;" horiz-adv-x="1306" d="M70 506q0 242 160.5 387t422.5 145t423 -145t161 -387q0 -240 -161 -385.5t-423 -145.5t-422.5 145.5t-160.5 385.5zM403 506q0 -137 66 -217t184 -80q119 0 184.5 80t65.5 217q0 141 -64.5 220t-185.5 79t-185.5 -79t-64.5 -220zM487 1192l152 297h334l-275 -297h-211z " />
<glyph unicode="&#xf4;" horiz-adv-x="1306" d="M70 506q0 242 160.5 387t422.5 145t423 -145t161 -387q0 -240 -161 -385.5t-423 -145.5t-422.5 145.5t-160.5 385.5zM403 506q0 -137 66 -217t184 -80q119 0 184.5 80t65.5 217q0 141 -64.5 220t-185.5 79t-185.5 -79t-64.5 -220zM293 1190l225 301h266l228 -301h-215 l-146 166l-143 -166h-215z" />
<glyph unicode="&#xf5;" horiz-adv-x="1306" d="M70 506q0 242 160.5 387t422.5 145t423 -145t161 -387q0 -240 -161 -385.5t-423 -145.5t-422.5 145.5t-160.5 385.5zM403 506q0 -137 66 -217t184 -80q119 0 184.5 80t65.5 217q0 141 -64.5 220t-185.5 79t-185.5 -79t-64.5 -220zM268 1208q8 106 71 188.5t165 82.5 q70 0 162 -38t147 -38q39 0 64.5 24.5t27.5 61.5h131q-8 -106 -70.5 -188t-164.5 -82q-70 0 -162 37.5t-147 37.5q-39 0 -64.5 -24.5t-28.5 -61.5h-131z" />
<glyph unicode="&#xf6;" horiz-adv-x="1306" d="M70 506q0 242 160.5 387t422.5 145t423 -145t161 -387q0 -240 -161 -385.5t-423 -145.5t-422.5 145.5t-160.5 385.5zM403 506q0 -137 66 -217t184 -80q119 0 184.5 80t65.5 217q0 141 -64.5 220t-185.5 79t-185.5 -79t-64.5 -220zM297 1348q0 137 1 139t132 2 q133 0 135 -2t2 -139t-2 -139.5t-133 -2.5q-133 0 -134 2.5t-1 139.5zM739 1348q0 137 1 139t133 2q133 0 135 -2t2 -139t-2 -139.5t-133 -2.5q-133 0 -134.5 2.5t-1.5 139.5z" />
<glyph unicode="&#xf7;" horiz-adv-x="1226" d="M94 412v237h1039v-237h-1039zM469 111q0 141 2 143t145 2q145 0 146.5 -2t1.5 -143t-1 -143.5t-145 -2.5q-145 0 -147 2.5t-2 143.5zM469 944q0 141 2 143.5t145 2.5q145 0 146.5 -2.5t1.5 -143.5t-1 -143t-145 -2q-145 0 -147 2t-2 143z" />
<glyph unicode="&#xf8;" horiz-adv-x="1306" d="M70 506q0 242 160.5 387t422.5 145q203 0 328 -77l133 143l103 -94l-125 -133q145 -139 145 -371q0 -240 -161 -385.5t-423 -145.5q-203 0 -329 78l-134 -143l-102 92l125 135q-143 140 -143 369zM403 506q0 -90 23 -141l371 399q-49 41 -144 41q-121 0 -185.5 -79 t-64.5 -220zM508 250q51 -41 145 -41q121 0 185.5 79t64.5 218q0 92 -22 143z" />
<glyph unicode="&#xf9;" horiz-adv-x="1304" d="M125 391v623h319v-527q0 -129 43 -191.5t142 -62.5q104 0 164.5 81t64.5 235v465h318v-1014h-295v180q-45 -84 -140.5 -144.5t-222.5 -60.5q-190 0 -291.5 107.5t-101.5 308.5zM329 1489h334l152 -297h-209z" />
<glyph unicode="&#xfa;" horiz-adv-x="1304" d="M125 391v623h319v-527q0 -129 43 -191.5t142 -62.5q104 0 164.5 81t64.5 235v465h318v-1014h-295v180q-45 -84 -140.5 -144.5t-222.5 -60.5q-190 0 -291.5 107.5t-101.5 308.5zM491 1192l152 297h334l-275 -297h-211z" />
<glyph unicode="&#xfb;" horiz-adv-x="1304" d="M125 391v623h319v-527q0 -129 43 -191.5t142 -62.5q104 0 164.5 81t64.5 235v465h318v-1014h-295v180q-45 -84 -140.5 -144.5t-222.5 -60.5q-190 0 -291.5 107.5t-101.5 308.5zM297 1190l225 301h266l228 -301h-215l-146 166l-143 -166h-215z" />
<glyph unicode="&#xfc;" horiz-adv-x="1304" d="M125 391v623h319v-527q0 -129 43 -191.5t142 -62.5q104 0 164.5 81t64.5 235v465h318v-1014h-295v180q-45 -84 -140.5 -144.5t-222.5 -60.5q-190 0 -291.5 107.5t-101.5 308.5zM301 1348q0 137 1 139t132 2q133 0 135 -2t2 -139t-2 -139.5t-133 -2.5q-133 0 -134 2.5 t-1 139.5zM743 1348q0 137 1 139t133 2q133 0 135 -2t2 -139t-2 -139.5t-133 -2.5q-133 0 -134.5 2.5t-1.5 139.5z" />
<glyph unicode="&#xfd;" horiz-adv-x="1187" d="M20 1014h349l243 -695l234 695h325l-444 -1098q-63 -190 -160.5 -280.5t-251.5 -90.5q-92 0 -149 10.5t-74 14.5l21 231l133 -20q72 0 118 40t58 113l12 27zM430 1192l152 297h334l-275 -297h-211z" />
<glyph unicode="&#xfe;" horiz-adv-x="1304" d="M121 -432v1962h317v-690q66 115 153 156.5t189 41.5q209 0 333 -145t124 -387q0 -240 -130 -385.5t-343 -145.5q-92 0 -180 37t-146 127v-571h-317zM438 502q2 -117 66.5 -199t169.5 -82q104 0 167.5 81t63.5 208q0 129 -61.5 205t-169.5 76q-100 0 -166 -76t-70 -191 v-22z" />
<glyph unicode="&#xff;" horiz-adv-x="1187" d="M20 1014h349l243 -695l234 695h325l-444 -1098q-63 -190 -160.5 -280.5t-251.5 -90.5q-92 0 -149 10.5t-74 14.5l21 231l133 -20q72 0 118 40t58 113l12 27zM240 1348q0 137 1 139t132 2q133 0 135 -2t2 -139t-2 -139.5t-133 -2.5q-133 0 -134 2.5t-1 139.5zM682 1348 q0 137 1 139t133 2q133 0 135 -2t2 -139t-2 -139.5t-133 -2.5q-133 0 -134.5 2.5t-1.5 139.5z" />
<glyph unicode="&#x131;" horiz-adv-x="624" d="M471 0h-319v1014h319v-1014z" />
<glyph unicode="&#x152;" horiz-adv-x="2004" d="M66 713q0 352 199.5 539.5t563.5 187.5l408 -13h680v-245h-567v-326h526v-246h-526v-364h579v-246h-698l-412 -12q-371 0 -562 182.5t-191 542.5zM412 711q0 -217 113.5 -343t312.5 -126q70 0 122 5t52 9v915q0 6 -55.5 10.5t-133.5 4.5q-201 0 -306 -123t-105 -352z" />
<glyph unicode="&#x153;" horiz-adv-x="1982" d="M63 506q0 242 152 387t406 145q156 0 254 -44t157 -128q53 72 147.5 122t233.5 50q262 0 383 -150.5t121 -449.5l-4 -24h-709q23 -94 66 -140q76 -78 237 -77q102 0 197.5 27.5t130.5 47.5v-239q-76 -27 -167 -42.5t-208 -15.5q-135 0 -247.5 41t-170.5 131 q-61 -84 -168.5 -128t-257.5 -44q-252 0 -402.5 145.5t-150.5 385.5zM397 506q0 -137 63.5 -217t182.5 -80q117 0 181.5 80t64.5 217q0 141 -63.5 220t-182.5 79q-121 0 -183.5 -79t-62.5 -220zM1202 608h393l29 -2q-2 109 -55 163t-150 54q-109 0 -168 -84 q-33 -47 -49 -131z" />
<glyph unicode="&#x178;" horiz-adv-x="1425" d="M20 1427h392l307 -579l311 579h373l-520 -870v-557h-336v555zM365 1670q0 137 1 139t132 2q133 0 135 -2t2 -139t-2 -139.5t-133 -2.5q-133 0 -134 2.5t-1 139.5zM807 1670q0 137 1 139t133 2q133 0 135 -2t2 -139t-2 -139.5t-133 -2.5q-133 0 -134.5 2.5t-1.5 139.5z " />
<glyph unicode="&#x2c6;" horiz-adv-x="628" d="M-45 1190l225 301h266l228 -301h-215l-146 166l-143 -166h-215z" />
<glyph unicode="&#x2da;" horiz-adv-x="628" d="M315 1610q92 0 158 -65.5t66 -158.5q0 -92 -65.5 -157.5t-158.5 -65.5q-92 0 -157.5 65.5t-65.5 157.5t65.5 158t157.5 66zM315 1491q-43 0 -73.5 -30.5t-30.5 -74.5q0 -43 30.5 -73.5t73.5 -30.5t74 30.5t31 73.5t-31 74t-74 31z" />
<glyph unicode="&#x2dc;" horiz-adv-x="628" d="M-68 1208q8 106 71 188.5t165 82.5q70 0 162 -38t147 -38q39 0 64.5 24.5t27.5 61.5h131q-8 -106 -70.5 -188t-164.5 -82q-70 0 -162 37.5t-147 37.5q-39 0 -64.5 -24.5t-28.5 -61.5h-131z" />
<glyph unicode="&#x2000;" horiz-adv-x="966" />
<glyph unicode="&#x2001;" horiz-adv-x="1933" />
<glyph unicode="&#x2002;" horiz-adv-x="966" />
<glyph unicode="&#x2003;" horiz-adv-x="1933" />
<glyph unicode="&#x2004;" horiz-adv-x="643" />
<glyph unicode="&#x2005;" horiz-adv-x="483" />
<glyph unicode="&#x2006;" horiz-adv-x="321" />
<glyph unicode="&#x2007;" horiz-adv-x="321" />
<glyph unicode="&#x2008;" horiz-adv-x="241" />
<glyph unicode="&#x2009;" horiz-adv-x="385" />
<glyph unicode="&#x200a;" horiz-adv-x="106" />
<glyph unicode="&#x2010;" horiz-adv-x="681" d="M68 420v248h544v-248h-544z" />
<glyph unicode="&#x2011;" horiz-adv-x="681" d="M68 420v248h544v-248h-544z" />
<glyph unicode="&#x2013;" horiz-adv-x="1024" d="M0 432v225h1028v-225h-1028z" />
<glyph unicode="&#x2014;" horiz-adv-x="2048" d="M0 432v225h2052v-225h-2052z" />
<glyph unicode="&#x2018;" horiz-adv-x="622" d="M84 901l184 508l267 21l-132 -525l5 -8q0 -2 -15 -6q-240 0 -274.5 2t-34.5 8z" />
<glyph unicode="&#x2019;" horiz-adv-x="622" d="M86 893l4 12l129 508l-6 8l10 9q246 0 281 -4.5t35 -8.5l-205 -528z" />
<glyph unicode="&#x201a;" horiz-adv-x="622" d="M88 -227l4 12l129 508l-6 8l10 9q246 0 281 -4.5t35 -8.5l-205 -528z" />
<glyph unicode="&#x201c;" horiz-adv-x="1122" d="M557 901l184 508l267 21l-132 -525l5 -8q0 -2 -15 -6q-240 0 -274.5 2t-34.5 8zM109 901l184 508l267 21l-132 -525l5 -8q0 -2 -15 -6q-240 0 -274.5 2t-34.5 8z" />
<glyph unicode="&#x201d;" horiz-adv-x="1122" d="M559 893l4 12l129 508l-6 8l10 9q246 0 281 -4.5t35 -8.5l-205 -528zM111 893l4 12l129 508l-6 8l10 9q246 0 281 -4.5t35 -8.5l-205 -528z" />
<glyph unicode="&#x201e;" horiz-adv-x="1122" d="M586 -227l4 12l129 508l-6 8l10 9q246 0 281 -4.5t35 -8.5l-205 -528zM137 -227l4 12l129 508l-6 8l10 9q246 0 281 -4.5t35 -8.5l-205 -528z" />
<glyph unicode="&#x2022;" horiz-adv-x="1009" d="M150 713q0 147 103 250.5t251 103.5q147 0 250.5 -103.5t103.5 -250.5t-103.5 -251t-250.5 -104t-250.5 104t-103.5 251z" />
<glyph unicode="&#x2026;" horiz-adv-x="2048" d="M864 156q0 154 2 155.5t158 1.5t158 -2t2 -155q0 -154 -2 -156t-158 -2t-158 2t-2 156zM1546 156q0 154 2 155.5t158 1.5t158 -2t2 -155q0 -154 -2 -156t-158 -2t-158 2t-2 156zM182 156q0 154 2 155.5t158 1.5t158 -2t2 -155q0 -154 -2 -156t-158 -2t-158 2t-2 156z" />
<glyph unicode="&#x202f;" horiz-adv-x="385" />
<glyph unicode="&#x2039;" horiz-adv-x="681" d="M72 547l256 422h288l-245 -422l225 -422h-289z" />
<glyph unicode="&#x203a;" horiz-adv-x="681" d="M61 969h289l256 -422l-6 -10l-229 -412h-289l225 422z" />
<glyph unicode="&#x205f;" horiz-adv-x="483" />
<glyph unicode="&#x2122;" horiz-adv-x="2048" d="M94 1260v167h692v-167h-30l-60 -3h-149v-675h-213v675h-148l-61 3h-31zM965 582v845h307l186 -512l187 512h307v-845h-213v583l-197 -583h-170l-196 583v-583h-211z" />
<glyph unicode="&#x2212;" horiz-adv-x="1226" d="M94 412v237h1039v-237h-1039z" />
</font>
</defs>
</svg>
